 http://leetleech.org/images/10326846817633006303.jpg

Screens:
 
http://leetleech.org/images/16425124493515553758.jpg 
http://leetleech.org/images/77014626292067876857.jpg 
http://leetleech.org/images/77390943482561529828.jpg 
http://leetleech.org/images/47144275460032801198.jpg

Alternative:
 
http://www.postimg.com/image/78000/photo-77646.jpg 
http://www.postimg.com/image/78000/photo-77647.jpg 
http://www.postimg.com/image/78000/photo-77648.jpg 
http://www.postimg.com/image/78000/photo-77649.jpg

ScreenCaps:
 
http://www.postimg.com/image/78000/photo-77651.jpg

The Hunger Games (2012) DVDRip XviD-MAX
Format                                   : AVI
Format/Info                              : Audio Video Interleave
Format profile                           : OpenDML
Format settings                          : rec
File size                                : 1.30 GiB
Duration                                 : 2h 24mn
Overall bit rate                         : 1 293 Kbps
Writing application                      : VirtualDubMod 1.5.10.2 (build 2542/release)
Writing library                          : VirtualDubMod build 2542/release
Original source form                     : MAX TORRENTZ
Copyright                                : SIGISMUNT

Video
ID                                       : 0
Format                                   : MPEG-4 Visual
Format profile                           : Advanced Simple@L5
Format settings, BVOP                    : 2
Format settings, QPel                    : No
Format settings, GMC                     : No warppoints
Format settings, Matrix                  : Default (H.263)
Codec ID                                 : XVID
Codec ID/Hint                            : XviD
Duration                                 : 2h 24mn
Bit rate                                 : 904 Kbps
Width                                    : 624 pixels
Height                                   : 256 pixels
Display aspect ratio                     : 2.40:1
Frame rate                               : 23.976 fps
Color space                              : YUV
Chroma subsampling                       : 4:2:0
Bit depth                                : 8 bits
Scan type                                : Progressive
Compression mode                         : Lossy
Bits/(Pixel*Frame)                       : 0.236
Stream size                              : 931 MiB (70%)
Writing library                          : XviD 1.2.1 (UTC 2008-12-04)

Audio
ID                                       : 1
Format                                   : AC-3
Format/Info                              : Audio Coding 3
Mode extension                           : CM (complete main)
Format settings, Endianness              : Big
Codec ID                                 : 2000
Duration                                 : 2h 24mn
Bit rate mode                            : Constant
Bit rate                                 : 384 Kbps
Channel(s)                               : 6 channels
Channel positions                        : Front: L C R, Side: L R, LFE
Sampling rate                            : 48.0 KHz
Bit depth                                : 16 bits
Compression mode                         : Lossy
Stream size                              : 396 MiB (30%)
Alignment                                : Aligned on interleaves
Interleave, duration                     : 64 ms (1.53 video frames)
Interleave, preload duration             : 192 ms

Source: DVD (perfect a/v/sync quality,sample included)
This torrent is not seedbox supported,please seed it to the MAX
Uploader Note: Want a better movie? Watch Battle Royale (2000)
